<svg xmlns="http://www.w3.org/2000/svg" id="torch" viewBox="0 0 32 32">
  <path d="m24.975,20.015c-.36-.636-1.011-1.015-1.741-1.015h-.192c1.832-2.543,2.036-5.88.466-8.627l-1.64-2.869c-.235-.412-.729-.601-1.18-.454-.451.148-.736.592-.682,1.064.023.206.099,1.224-.582,2.035.084-1.004.004-2.223-.491-3.508-1.169-3.033-3.791-4.266-4.567-4.571-.359-.139-.767-.063-1.049.2s-.388.666-.271,1.033c.202.636.471,1.922,0,3.393-.398,1.245-1.143,2.071-1.755,2.598l-1.836,1.835c-2.13,2.131-2.337,5.487-.521,7.872h-.17c-.73,0-1.381.379-1.741,1.015-.359.636-.35,1.389.026,2.014l1.508,2.515c.54.898,1.526,1.456,2.573,1.456h.867v1c0,1.654,1.346,3,3,3h2c1.654,0,3-1.346,3-3v-1h.867c1.047,0,2.033-.558,2.573-1.457l1.508-2.513c.376-.626.386-1.379.026-2.015Zm-14.397-2.145c-1.275-1.594-1.148-3.884.294-5.328l1.778-1.782c.752-.642,1.762-1.763,2.303-3.456.273-.853.363-1.66.355-2.372.655.543,1.336,1.328,1.759,2.426.737,1.912.244,3.635-.002,4.288-.125.333-.065.707.158.982.223.276.572.413.929.359.976-.149,1.884-.605,2.558-1.284.292-.293.527-.616.713-.951l.35.612c1.229,2.151,1.023,4.791-.524,6.725l-.728.91h-9.039l-.903-1.13Zm7.423,9.13c0,.551-.448,1-1,1h-2c-.552,0-1-.449-1-1v-1h4v1Zm3.726-3.486c-.18.3-.509.486-.858.486h-9.734c-.35,0-.679-.187-.858-.485l-1.508-2.515h14.467s-1.508,2.514-1.508,2.514Z"></path>
</svg>
